<svg xmlns="http://www.w3.org/2000/svg" viewBox="0 0 760 412" width="760" height="412" role="img" aria-label="82 tools, 29 of them writes, every write gated">
<style>
svg{--surface:#fcfcfb;--ink:#0b0b0b;--ink2:#52514e;--muted:#898781;--grid:#e1e0d9;--base:#c3c2b7;
--s1:#2a78d6;--s2:#eb6834;--s3:#1baf7a;--wash:rgba(42,120,214,.10);--band:rgba(11,11,11,.035)}
@media (prefers-color-scheme: dark){svg{--surface:#1a1a19;--ink:#ffffff;--ink2:#c3c2b7;--muted:#898781;
--grid:#2c2c2a;--base:#383835;--s1:#3987e5;--s2:#d95926;--s3:#199e70;--wash:rgba(57,135,229,.14);--band:rgba(255,255,255,.04)}}
text{font-family:system-ui,-apple-system,"Segoe UI",Roboto,sans-serif;fill:var(--ink2);font-size:12px}
.bg{fill:var(--surface)} .h{fill:var(--ink);font-size:16px;font-weight:600} .sub{fill:var(--ink2);font-size:12.5px}
.t1{fill:var(--ink)} .mut{fill:var(--muted);font-size:11px} .num{font-variant-numeric:tabular-nums}
.grid{stroke:var(--grid);stroke-width:1} .base{stroke:var(--base);stroke-width:1}
.s1{fill:var(--s1)} .s2{fill:var(--s2)} .s3{fill:var(--s3)}
.l1{stroke:var(--s1);stroke-width:2;fill:none;stroke-linejoin:round;stroke-linecap:round}
.wash{fill:var(--wash)} .band{fill:var(--band)} .ring{stroke:var(--surface);stroke-width:2}
.rule{stroke:var(--ink2);stroke-width:1}
</style><rect class="bg" x="0" y="0" width="760" height="412" rx="10"/><text x="24.0" y="34.0" class="h" text-anchor="start" >82 tools, 29 of them writes, every write gated</text><text x="24.0" y="54.0" class="sub" text-anchor="start" >A gated write computes and stages its change, and commits only on explicit approval in the same turn.</text><line x1="170.0" y1="90.0" x2="170.0" y2="362.0" class="grid"/><text x="170.0" y="378.0" class="mut num" text-anchor="middle" >0</text><line x1="297.5" y1="90.0" x2="297.5" y2="362.0" class="grid"/><text x="297.5" y="378.0" class="mut num" text-anchor="middle" >10</text><line x1="425.0" y1="90.0" x2="425.0" y2="362.0" class="grid"/><text x="425.0" y="378.0" class="mut num" text-anchor="middle" >20</text><line x1="552.5" y1="90.0" x2="552.5" y2="362.0" class="grid"/><text x="552.5" y="378.0" class="mut num" text-anchor="middle" >30</text><line x1="680.0" y1="90.0" x2="680.0" y2="362.0" class="grid"/><text x="680.0" y="378.0" class="mut num" text-anchor="middle" >40</text><text x="160.0" y="110.0" class="t1" text-anchor="end" >core (tools.py)</text><rect class="s1" x="170" y="96" width="265.8" height="18"/><path class="s2" d="M437.8,96.0 h59.8 a4,4 0 0 1 4,4 v10.0 a4,4 0 0 1 -4,4 h-59.8 z"/><text x="507.5" y="110.0" class="t1 num" text-anchor="start" >21 read · 5 write</text><text x="160.0" y="144.0" class="t1" text-anchor="end" >campus.py</text><rect class="s1" x="170" y="130" width="189.2" height="18"/><path class="s2" d="M361.2,130.0 h136.2 a4,4 0 0 1 4,4 v10.0 a4,4 0 0 1 -4,4 h-136.2 z"/><text x="507.5" y="144.0" class="t1 num" text-anchor="start" >15 read · 11 write</text><text x="160.0" y="178.0" class="t1" text-anchor="end" >portal.py</text><rect class="s1" x="170" y="164" width="74.5" height="18"/><path class="s2" d="M246.5,164.0 h34.2 a4,4 0 0 1 4,4 v10.0 a4,4 0 0 1 -4,4 h-34.2 z"/><text x="290.8" y="178.0" class="t1 num" text-anchor="start" >6 read · 3 write</text><text x="160.0" y="212.0" class="t1" text-anchor="end" >placement.py</text><rect class="s1" x="170" y="198" width="36.2" height="18"/><path class="s2" d="M208.2,198.0 h47.0 a4,4 0 0 1 4,4 v10.0 a4,4 0 0 1 -4,4 h-47.0 z"/><text x="265.2" y="212.0" class="t1 num" text-anchor="start" >3 read · 4 write</text><text x="160.0" y="246.0" class="t1" text-anchor="end" >academics.py</text><rect class="s1" x="170" y="232" width="36.2" height="18"/><path class="s2" d="M208.2,232.0 h34.2 a4,4 0 0 1 4,4 v10.0 a4,4 0 0 1 -4,4 h-34.2 z"/><text x="252.5" y="246.0" class="t1 num" text-anchor="start" >3 read · 3 write</text><text x="160.0" y="280.0" class="t1" text-anchor="end" >teaching.py</text><rect class="s1" x="170" y="266" width="36.2" height="18"/><path class="s2" d="M208.2,266.0 h8.8 a4,4 0 0 1 4,4 v10.0 a4,4 0 0 1 -4,4 h-8.8 z"/><text x="227.0" y="280.0" class="t1 num" text-anchor="start" >3 read · 1 write</text><text x="160.0" y="314.0" class="t1" text-anchor="end" >academic_calendar.py</text><rect class="s1" x="170" y="300" width="10.8" height="18"/><path class="s2" d="M182.8,300.0 h21.5 a4,4 0 0 1 4,4 v10.0 a4,4 0 0 1 -4,4 h-21.5 z"/><text x="214.2" y="314.0" class="t1 num" text-anchor="start" >1 read · 2 write</text><text x="160.0" y="348.0" class="t1" text-anchor="end" >accreditation.py</text><rect class="s1" x="170" y="334" width="10.8" height="18"/><text x="188.8" y="348.0" class="t1 num" text-anchor="start" >1 read · 0 write</text><line x1="170.0" y1="90.0" x2="170.0" y2="362.0" class="base"/><rect x="170" y="71" width="10" height="10" rx="2" class="s1"/><text x="186.0" y="80.0" class="t1" text-anchor="start" >read</text><rect x="228" y="71" width="10" height="10" rx="2" class="s2"/><text x="244.0" y="80.0" class="t1" text-anchor="start" >gated write</text><text x="24.0" y="398.0" class="mut" text-anchor="start" >Measured by docs/charts/make_charts.py · tools.FUNCS and tools.GATED_WRITES</text></svg>
